<?xml version="1.0" encoding="UTF-8" standalone="no"?>
<!-- Created with Inkscape (http://www.inkscape.org/) -->

<svg
   version="1.1"
   id="svg1"
   width="783.68457"
   height="56.656528"
   viewBox="0 0 783.6849 56.65655"
   sodipodi:docname="LOGO-MCT_TEXT.ai"
   xmlns:inkscape="http://www.inkscape.org/namespaces/inkscape"
   xmlns:sodipodi="http://sodipodi.sourceforge.net/DTD/sodipodi-0.dtd"
   xmlns="http://www.w3.org/2000/svg"
   xmlns:svg="http://www.w3.org/2000/svg">
  <defs
     id="defs1">
    <clipPath
       clipPathUnits="userSpaceOnUse"
       id="clipPath4">
      <path
         d="M 0,77.86 H 623.72 V 0 H 0 Z"
         transform="translate(-412.61381,-38.196401)"
         id="path4" />
    </clipPath>
    <clipPath
       clipPathUnits="userSpaceOnUse"
       id="clipPath6">
      <path
         d="M 0,77.86 H 623.72 V 0 H 0 Z"
         transform="translate(-444.67591,-54.274802)"
         id="path6" />
    </clipPath>
    <clipPath
       clipPathUnits="userSpaceOnUse"
       id="clipPath8">
      <path
         d="M 0,77.86 H 623.72 V 0 H 0 Z"
         transform="translate(-474.87671,-54.274802)"
         id="path8" />
    </clipPath>
    <clipPath
       clipPathUnits="userSpaceOnUse"
       id="clipPath10">
      <path
         d="M 0,77.86 H 623.72 V 0 H 0 Z"
         id="path10" />
    </clipPath>
    <clipPath
       clipPathUnits="userSpaceOnUse"
       id="clipPath12">
      <path
         d="M 0,77.86 H 623.72 V 0 H 0 Z"
         transform="translate(-535.79272,-30.111501)"
         id="path12" />
    </clipPath>
    <clipPath
       clipPathUnits="userSpaceOnUse"
       id="clipPath14">
      <path
         d="M 0,77.86 H 623.72 V 0 H 0 Z"
         transform="translate(-550.41721,-36.323901)"
         id="path14" />
    </clipPath>
    <clipPath
       clipPathUnits="userSpaceOnUse"
       id="clipPath16">
      <path
         d="M 0,77.86 H 623.72 V 0 H 0 Z"
         transform="translate(-580.81291,-54.274802)"
         id="path16" />
    </clipPath>
    <clipPath
       clipPathUnits="userSpaceOnUse"
       id="clipPath18">
      <path
         d="M 0,77.86 H 623.72 V 0 H 0 Z"
         transform="translate(-18.993501,-54.279801)"
         id="path18" />
    </clipPath>
    <clipPath
       clipPathUnits="userSpaceOnUse"
       id="clipPath20">
      <path
         d="M 0,77.86 H 623.72 V 0 H 0 Z"
         transform="translate(-87.3892,-54.279801)"
         id="path20" />
    </clipPath>
    <clipPath
       clipPathUnits="userSpaceOnUse"
       id="clipPath22">
      <path
         d="M 0,77.86 H 623.72 V 0 H 0 Z"
         transform="translate(-70.166302,-29.6843)"
         id="path22" />
    </clipPath>
    <clipPath
       clipPathUnits="userSpaceOnUse"
       id="clipPath24">
      <path
         d="M 0,77.86 H 623.72 V 0 H 0 Z"
         transform="translate(-295.19871,-58.538901)"
         id="path24" />
    </clipPath>
    <clipPath
       clipPathUnits="userSpaceOnUse"
       id="clipPath26">
      <path
         d="M 0,77.86 H 623.72 V 0 H 0 Z"
         transform="translate(-118.60971,-38.238801)"
         id="path26" />
    </clipPath>
    <clipPath
       clipPathUnits="userSpaceOnUse"
       id="clipPath28">
      <path
         d="M 0,77.86 H 623.72 V 0 H 0 Z"
         transform="translate(-181.87161,-54.317201)"
         id="path28" />
    </clipPath>
    <clipPath
       clipPathUnits="userSpaceOnUse"
       id="clipPath30">
      <path
         d="M 0,77.86 H 623.72 V 0 H 0 Z"
         transform="translate(-221.43901,-46.551701)"
         id="path30" />
    </clipPath>
    <clipPath
       clipPathUnits="userSpaceOnUse"
       id="clipPath32">
      <path
         d="M 0,77.86 H 623.72 V 0 H 0 Z"
         transform="translate(-255.62451,-38.970301)"
         id="path32" />
    </clipPath>
    <clipPath
       clipPathUnits="userSpaceOnUse"
       id="clipPath34">
      <path
         d="M 0,77.86 H 623.72 V 0 H 0 Z"
         transform="translate(-305.87901,-54.317201)"
         id="path34" />
    </clipPath>
    <clipPath
       clipPathUnits="userSpaceOnUse"
       id="clipPath36">
      <path
         d="M 0,77.86 H 623.72 V 0 H 0 Z"
         transform="translate(-331.68991,-54.317201)"
         id="path36" />
    </clipPath>
    <clipPath
       clipPathUnits="userSpaceOnUse"
       id="clipPath38">
      <path
         d="M 0,77.86 H 623.72 V 0 H 0 Z"
         transform="translate(-164.6176,-29.748301)"
         id="path38" />
    </clipPath>
    <clipPath
       clipPathUnits="userSpaceOnUse"
       id="clipPath40">
      <path
         d="M 0,77.86 H 623.72 V 0 H 0 Z"
         transform="translate(-287.55271,-29.682701)"
         id="path40" />
    </clipPath>
  </defs>
  <sodipodi:namedview
     id="namedview1"
     pagecolor="#ffffff"
     bordercolor="#666666"
     borderopacity="1.0"
     inkscape:showpageshadow="2"
     inkscape:pageopacity="0.0"
     inkscape:pagecheckerboard="0"
     inkscape:deskcolor="#d1d1d1">
    <inkscape:page
       x="1.584125e-06"
       y="6.6585372e-08"
       width="783.68488"
       height="56.656551"
       id="page2"
       margin="0"
       bleed="0" />
  </sodipodi:namedview>
  <g
     id="layer-MC0"
     inkscape:groupmode="layer"
     inkscape:label="Calque 1"
     transform="translate(-25.324695,-18.701869)">
    <path
       id="path1"
       d="M 0,0 H -9.594 V 7.766 H 18.452 V 0 H 8.86 V -24.208 H 0 Z"
       style="fill:#371f4b;fill-opacity:1;fill-rule:nonzero;stroke:none"
       transform="matrix(1.3333333,0,0,-1.3333333,490.8796,41.801467)" />
    <path
       id="path2"
       d="M 0,0 H 25.714 V -7.536 H 8.77 v -4.842 h 15.346 v -6.989 H 8.77 v -5.071 h 17.174 v -7.536 H 0 Z"
       style="fill:#371f4b;fill-opacity:1;fill-rule:nonzero;stroke:none"
       transform="matrix(1.3333333,0,0,-1.3333333,515.98,31.447333)" />
    <path
       id="path3"
       d="m 0,0 v 0.091 c 0,9.319 7.172,16.627 16.854,16.627 6.533,0 10.734,-2.74 13.567,-6.669 L 23.752,4.887 C 21.924,7.172 19.825,8.634 16.763,8.634 12.287,8.634 9.136,4.842 9.136,0.183 V 0.091 c 0,-4.795 3.151,-8.542 7.627,-8.542 3.335,0 5.299,1.553 7.217,3.883 l 6.669,-4.751 C 27.635,-13.474 23.57,-16.536 16.491,-16.536 7.355,-16.536 0,-9.547 0,0"
       style="fill:#371f4b;fill-opacity:1;fill-rule:nonzero;stroke:none"
       transform="matrix(1.3333333,0,0,-1.3333333,550.15173,52.8852)"
       clip-path="url(#clipPath4)" />
    <path
       id="path5"
       d="M 0,0 H 8.86 V -11.968 H 20.233 V 0 h 8.863 v -31.974 h -8.863 v 12.151 H 8.86 V -31.974 H 0 Z"
       style="fill:#371f4b;fill-opacity:1;fill-rule:nonzero;stroke:none"
       transform="matrix(1.3333333,0,0,-1.3333333,592.9012,31.447333)"
       clip-path="url(#clipPath6)" />
    <path
       id="path7"
       d="M 0,0 H 8.266 L 21.42,-16.9 V 0 h 8.77 V -31.974 H 22.427 L 8.77,-14.434 v -17.54 H 0 Z"
       style="fill:#371f4b;fill-opacity:1;fill-rule:nonzero;stroke:none"
       transform="matrix(1.3333333,0,0,-1.3333333,633.16893,31.447333)"
       clip-path="url(#clipPath8)" />
    <path
       id="path9"
       d="m 506.272,54.275 h 8.908 V 22.301 h -8.908 z"
       style="fill:#371f4b;fill-opacity:1;fill-rule:nonzero;stroke:none"
       transform="matrix(1.3333333,0,0,-1.3333333,0,103.81373)"
       clip-path="url(#clipPath10)" />
    <path
       id="path11"
       d="M 0,0 -4.431,3.791 0.045,8.816 4.386,4.887 c 0.366,0.96 0.546,2.011 0.546,3.106 v 0.092 c 0,4.659 -3.334,8.725 -8.266,8.725 -4.842,0 -8.084,-4.021 -8.084,-8.634 V 8.085 c 0,-4.613 3.287,-8.679 8.174,-8.679 1.19,0 2.285,0.228 3.244,0.594 M 6.395,-5.617 C 3.655,-7.4 0.321,-8.451 -3.334,-8.451 c -9.867,0 -17.174,7.355 -17.174,16.536 v 0.091 c 0,9.181 7.399,16.627 17.264,16.627 9.867,0 17.177,-7.354 17.177,-16.535 V 8.176 c 0,-3.38 -1.007,-6.577 -2.833,-9.18 L 14.389,-3.791 9.912,-8.77 Z"
       style="fill:#371f4b;fill-opacity:1;fill-rule:nonzero;stroke:none"
       transform="matrix(1.3333333,0,0,-1.3333333,714.39027,63.665067)"
       clip-path="url(#clipPath12)" />
    <path
       id="path13"
       d="M 0,0 V 17.951 H 9.001 V 0.183 c 0,-4.614 2.329,-6.806 5.891,-6.806 3.562,0 5.892,2.1 5.892,6.577 v 17.997 h 8.998 V 0.228 C 29.782,-10.095 23.89,-14.617 14.8,-14.617 5.712,-14.617 0,-10.004 0,0"
       style="fill:#371f4b;fill-opacity:1;fill-rule:nonzero;stroke:none"
       transform="matrix(1.3333333,0,0,-1.3333333,733.8896,55.381867)"
       clip-path="url(#clipPath14)" />
    <path
       id="path15"
       d="M 0,0 H 25.714 V -7.536 H 8.77 v -4.842 h 15.346 v -6.989 H 8.77 v -5.071 h 17.174 v -7.536 H 0 Z"
       style="fill:#371f4b;fill-opacity:1;fill-rule:nonzero;stroke:none"
       transform="matrix(1.3333333,0,0,-1.3333333,774.4172,31.447333)"
       clip-path="url(#clipPath16)" />
    <path
       id="path17"
       d="M 0,0 H 9.364 L 16.991,-12.378 24.619,0 h 9.364 v -31.974 h -8.815 v 18.362 l -8.177,-12.515 h -0.182 l -8.132,12.423 v -18.27 H 0 Z"
       style="fill:#371f4b;fill-opacity:1;fill-rule:nonzero;stroke:none"
       transform="matrix(1.3333333,0,0,-1.3333333,25.324667,31.440667)"
       clip-path="url(#clipPath18)" />
    <path
       id="path19"
       d="M 0,0 H 8.266 L 21.42,-16.9 V 0 h 8.77 V -31.974 H 22.427 L 8.77,-14.434 v -17.54 H 0 Z"
       style="fill:#371f4b;fill-opacity:1;fill-rule:nonzero;stroke:none"
       transform="matrix(1.3333333,0,0,-1.3333333,116.51893,31.440667)"
       clip-path="url(#clipPath20)" />
    <path
       id="path21"
       d="m 0,0 c -4.507,0 -8.16,3.858 -8.16,8.617 0,4.758 3.653,8.616 8.16,8.616 4.507,0 8.16,-3.858 8.16,-8.616 C 8.16,3.858 4.507,0 0,0 m 0,25.212 c -9.491,0 -17.185,-7.43 -17.185,-16.595 0,-9.166 7.694,-16.596 17.185,-16.596 9.491,0 17.186,7.43 17.186,16.596 0,9.165 -7.695,16.595 -17.186,16.595"
       style="fill:#371f4b;fill-opacity:1;fill-rule:nonzero;stroke:none"
       transform="matrix(1.3333333,0,0,-1.3333333,93.555067,64.234667)"
       clip-path="url(#clipPath22)" />
    <path
       id="path23"
       d="m 0,0 -4.109,5.295 h -7.104 l -5.754,-7.523 h 5.471 l 3.961,2.84 3.7,-2.84 h 5.562 z"
       style="fill:#eb5935;fill-opacity:1;fill-rule:nonzero;stroke:none"
       transform="matrix(1.3333333,0,0,-1.3333333,393.59827,25.761867)"
       clip-path="url(#clipPath24)" />
    <path
       id="path25"
       d="m 0,0 v 0.091 c 0,9.319 7.171,16.627 16.855,16.627 6.532,0 10.734,-2.74 13.566,-6.669 L 23.752,4.887 C 21.925,7.172 19.823,8.634 16.763,8.634 12.287,8.634 9.136,4.842 9.136,0.183 V 0.091 c 0,-4.795 3.151,-8.542 7.627,-8.542 3.335,0 5.299,1.553 7.217,3.883 l 6.669,-4.751 C 27.634,-13.474 23.57,-16.536 16.489,-16.536 7.353,-16.536 0,-9.547 0,0"
       style="fill:#eb5935;fill-opacity:1;fill-rule:nonzero;stroke:none"
       transform="matrix(1.3333333,0,0,-1.3333333,158.14627,52.828667)"
       clip-path="url(#clipPath26)" />
    <path
       id="path27"
       d="M 0,0 H 8.268 L 21.423,-16.9 V 0 h 8.77 V -31.974 H 22.427 L 8.77,-14.434 v -17.54 H 0 Z"
       style="fill:#eb5935;fill-opacity:1;fill-rule:nonzero;stroke:none"
       transform="matrix(1.3333333,0,0,-1.3333333,242.49547,31.3908)"
       clip-path="url(#clipPath28)" />
    <path
       id="path29"
       d="M 0,0 H -9.592 V 7.766 H 18.454 V 0 H 8.861 V -24.208 H 0 Z"
       style="fill:#eb5935;fill-opacity:1;fill-rule:nonzero;stroke:none"
       transform="matrix(1.3333333,0,0,-1.3333333,295.252,41.7448)"
       clip-path="url(#clipPath30)" />
    <path
       id="path31"
       d="m 0,0 c 3.015,0 4.751,1.462 4.751,3.791 v 0.09 c 0,2.513 -1.828,3.792 -4.796,3.792 H -5.847 V 0 Z M -14.708,15.347 H 0.411 c 4.887,0 8.269,-1.279 10.416,-3.471 1.871,-1.827 2.83,-4.295 2.83,-7.446 V 4.339 c 0,-4.888 -2.602,-8.13 -6.578,-9.821 l 7.628,-11.145 H 4.476 l -6.44,9.683 h -0.091 -3.792 v -9.683 h -8.861 z"
       style="fill:#eb5935;fill-opacity:1;fill-rule:nonzero;stroke:none"
       transform="matrix(1.3333333,0,0,-1.3333333,340.83267,51.853333)"
       clip-path="url(#clipPath32)" />
    <path
       id="path33"
       d="m 0,0 h 8.86 v -24.208 h 15.484 v -7.766 H 0 Z"
       style="fill:#eb5935;fill-opacity:1;fill-rule:nonzero;stroke:none"
       transform="matrix(1.3333333,0,0,-1.3333333,407.83867,31.3908)"
       clip-path="url(#clipPath34)" />
    <path
       id="path35"
       d="M 0,0 H 25.714 V -7.536 H 8.77 v -4.842 h 15.346 v -6.989 H 8.77 v -5.071 h 17.174 v -7.536 H 0 Z"
       style="fill:#eb5935;fill-opacity:1;fill-rule:nonzero;stroke:none"
       transform="matrix(1.3333333,0,0,-1.3333333,442.2532,31.3908)"
       clip-path="url(#clipPath36)" />
    <path
       id="path37"
       d="m 0,0 c -4.507,0 -8.16,3.858 -8.16,8.617 0,4.758 3.653,8.616 8.16,8.616 4.507,0 8.16,-3.858 8.16,-8.616 C 8.16,3.858 4.507,0 0,0 m 0,25.212 c -9.491,0 -17.185,-7.43 -17.185,-16.595 0,-9.166 7.694,-16.596 17.185,-16.596 9.491,0 17.186,7.43 17.186,16.596 0,9.165 -7.695,16.595 -17.186,16.595"
       style="fill:#eb5935;fill-opacity:1;fill-rule:nonzero;stroke:none"
       transform="matrix(1.3333333,0,0,-1.3333333,219.49013,64.149333)"
       clip-path="url(#clipPath38)" />
    <path
       id="path39"
       d="m 0,0 c -4.507,0 -8.161,3.858 -8.161,8.617 0,4.759 3.654,8.618 8.161,8.618 4.507,0 8.161,-3.859 8.161,-8.618 C 8.161,3.858 4.507,0 0,0 m 0,25.214 c -9.492,0 -17.187,-7.43 -17.187,-16.597 0,-9.166 7.695,-16.597 17.187,-16.597 9.492,0 17.187,7.431 17.187,16.597 0,9.167 -7.695,16.597 -17.187,16.597"
       style="fill:#eb5935;fill-opacity:1;fill-rule:nonzero;stroke:none"
       transform="matrix(1.3333333,0,0,-1.3333333,383.4036,64.2368)"
       clip-path="url(#clipPath40)" />
  </g>
</svg>
